<svg xmlns="http://www.w3.org/2000/svg" xmlns:xlink="http://www.w3.org/1999/xlink" width="500" zoomAndPan="magnify" viewBox="0 0 375 374.999991" height="500" preserveAspectRatio="xMidYMid meet" version="1.0"><defs><g/><clipPath id="268be8fd39"><path d="M 187.5 0 C 291.054688 0 375 83.945312 375 187.5 C 375 291.054688 291.054688 375 187.5 375 C 83.945312 375 0 291.054688 0 187.5 C 0 83.945312 83.945312 0 187.5 0 L 187.5 33.75 C 102.585938 33.75 33.75 102.585938 33.75 187.5 C 33.75 272.414062 102.585938 341.25 187.5 341.25 C 272.414062 341.25 341.25 272.414062 341.25 187.5 C 341.25 102.585938 272.414062 33.75 187.5 33.75 Z M 187.5 0 " clip-rule="nonzero"/></clipPath><clipPath id="a7607da255"><path d="M 84 0 L 375 0 L 375 375 L 84 375 Z M 84 0 " clip-rule="nonzero"/></clipPath><clipPath id="edf61a3cbc"><path d="M 206.042969 0.917969 C 282.359375 8.503906 346.359375 61.796875 367.640625 135.476562 C 388.917969 209.15625 363.179688 288.367188 302.65625 335.46875 C 242.136719 382.570312 159.03125 388.066406 92.832031 349.347656 C 87.628906 346.304688 84.445312 340.714844 84.476562 334.683594 C 84.511719 328.65625 87.761719 323.105469 93 320.117188 C 98.238281 317.132812 104.667969 317.171875 109.871094 320.214844 C 164.15625 351.964844 232.300781 347.457031 281.929688 308.835938 C 331.558594 270.210938 352.660156 205.257812 335.214844 144.84375 C 317.765625 84.425781 265.285156 40.722656 202.707031 34.503906 C 193.433594 33.582031 186.660156 25.316406 187.582031 16.042969 C 188.503906 6.769531 196.769531 -0.00390625 206.042969 0.917969 Z M 206.042969 0.917969 " clip-rule="nonzero"/></clipPath></defs><g fill="#ffffff" fill-opacity="1"><g transform="translate(108.085939, 217.499992)"><g><path d="M 2.734375 -23.578125 C 2.734375 -34.566406 5.054688 -42.742188 9.703125 -48.109375 C 14.347656 -53.472656 21.300781 -56.15625 30.5625 -56.15625 C 33.726562 -56.15625 36.210938 -55.96875 38.015625 -55.59375 L 38.015625 -46.21875 C 35.753906 -46.71875 33.523438 -46.96875 31.328125 -46.96875 C 27.296875 -46.96875 24.007812 -46.359375 21.46875 -45.140625 C 18.925781 -43.929688 17.019531 -42.132812 15.75 -39.75 C 14.488281 -37.375 13.742188 -34 13.515625 -29.625 L 14.015625 -29.625 C 16.515625 -33.925781 20.523438 -36.078125 26.046875 -36.078125 C 31.003906 -36.078125 34.890625 -34.519531 37.703125 -31.40625 C 40.515625 -28.289062 41.921875 -23.984375 41.921875 -18.484375 C 41.921875 -12.566406 40.25 -7.878906 36.90625 -4.421875 C 33.5625 -0.960938 28.929688 0.765625 23.015625 0.765625 C 18.910156 0.765625 15.332031 -0.179688 12.28125 -2.078125 C 9.226562 -3.984375 6.875 -6.757812 5.21875 -10.40625 C 3.5625 -14.050781 2.734375 -18.441406 2.734375 -23.578125 Z M 22.78125 -8.625 C 25.289062 -8.625 27.210938 -9.460938 28.546875 -11.140625 C 29.890625 -12.828125 30.5625 -15.226562 30.5625 -18.34375 C 30.5625 -21.050781 29.9375 -23.179688 28.6875 -24.734375 C 27.4375 -26.296875 25.546875 -27.078125 23.015625 -27.078125 C 20.628906 -27.078125 18.59375 -26.300781 16.90625 -24.75 C 15.226562 -23.207031 14.390625 -21.410156 14.390625 -19.359375 C 14.390625 -16.347656 15.179688 -13.804688 16.765625 -11.734375 C 18.347656 -9.660156 20.351562 -8.625 22.78125 -8.625 Z M 22.78125 -8.625 "/></g></g></g><g fill="#ffffff" fill-opacity="1"><g transform="translate(152.465701, 217.499992)"><g><path d="M 41.609375 -27.75 C 41.609375 -18.0625 40.019531 -10.882812 36.84375 -6.21875 C 33.664062 -1.5625 28.773438 0.765625 22.171875 0.765625 C 15.765625 0.765625 10.9375 -1.640625 7.6875 -6.453125 C 4.4375 -11.265625 2.8125 -18.363281 2.8125 -27.75 C 2.8125 -37.550781 4.390625 -44.773438 7.546875 -49.421875 C 10.710938 -54.066406 15.585938 -56.390625 22.171875 -56.390625 C 28.578125 -56.390625 33.414062 -53.957031 36.6875 -49.09375 C 39.96875 -44.238281 41.609375 -37.125 41.609375 -27.75 Z M 14.46875 -27.75 C 14.46875 -20.945312 15.054688 -16.070312 16.234375 -13.125 C 17.410156 -10.175781 19.390625 -8.703125 22.171875 -8.703125 C 24.910156 -8.703125 26.882812 -10.191406 28.09375 -13.171875 C 29.3125 -16.160156 29.921875 -21.019531 29.921875 -27.75 C 29.921875 -34.5625 29.304688 -39.453125 28.078125 -42.421875 C 26.847656 -45.398438 24.878906 -46.890625 22.171875 -46.890625 C 19.410156 -46.890625 17.4375 -45.398438 16.25 -42.421875 C 15.0625 -39.453125 14.46875 -34.5625 14.46875 -27.75 Z M 14.46875 -27.75 "/></g></g></g><g fill="#ffffff" fill-opacity="1"><g transform="translate(196.845462, 217.499992)"><g><path d="M 11.96875 -38.890625 C 11.96875 -35.671875 12.25 -33.269531 12.8125 -31.6875 C 13.382812 -30.101562 14.300781 -29.3125 15.5625 -29.3125 C 18 -29.3125 19.21875 -32.503906 19.21875 -38.890625 C 19.21875 -45.210938 18 -48.375 15.5625 -48.375 C 14.300781 -48.375 13.382812 -47.59375 12.8125 -46.03125 C 12.25 -44.476562 11.96875 -42.097656 11.96875 -38.890625 Z M 28.78125 -38.953125 C 28.78125 -33.128906 27.65625 -28.753906 25.40625 -25.828125 C 23.15625 -22.910156 19.851562 -21.453125 15.5 -21.453125 C 11.320312 -21.453125 8.09375 -22.953125 5.8125 -25.953125 C 3.53125 -28.953125 2.390625 -33.285156 2.390625 -38.953125 C 2.390625 -50.523438 6.757812 -56.3125 15.5 -56.3125 C 19.769531 -56.3125 23.050781 -54.8125 25.34375 -51.8125 C 27.632812 -48.8125 28.78125 -44.523438 28.78125 -38.953125 Z M 54.90625 -55.515625 L 24.109375 0 L 15 0 L 45.796875 -55.515625 Z M 50.84375 -16.703125 C 50.84375 -13.492188 51.125 -11.097656 51.6875 -9.515625 C 52.257812 -7.929688 53.179688 -7.140625 54.453125 -7.140625 C 56.878906 -7.140625 58.09375 -10.328125 58.09375 -16.703125 C 58.09375 -23.035156 56.878906 -26.203125 54.453125 -26.203125 C 53.179688 -26.203125 52.257812 -25.421875 51.6875 -23.859375 C 51.125 -22.304688 50.84375 -19.921875 50.84375 -16.703125 Z M 67.671875 -16.78125 C 67.671875 -10.988281 66.539062 -6.628906 64.28125 -3.703125 C 62.03125 -0.773438 58.726562 0.6875 54.375 0.6875 C 50.195312 0.6875 46.96875 -0.8125 44.6875 -3.8125 C 42.414062 -6.8125 41.28125 -11.132812 41.28125 -16.78125 C 41.28125 -28.351562 45.644531 -34.140625 54.375 -34.140625 C 58.65625 -34.140625 61.941406 -32.640625 64.234375 -29.640625 C 66.523438 -26.640625 67.671875 -22.351562 67.671875 -16.78125 Z M 67.671875 -16.78125 "/></g></g></g><g clip-path="url(#268be8fd39)"><rect x="-37.5" width="450" fill="#4d1546" y="-37.499999" height="449.999989" fill-opacity="1"/></g><g clip-path="url(#a7607da255)"><g clip-path="url(#edf61a3cbc)"><rect x="-37.5" width="450" fill="#ce3abb" y="-37.499999" height="449.999989" fill-opacity="1"/></g></g></svg>