<svg xmlns="http://www.w3.org/2000/svg" xmlns:xlink="http://www.w3.org/1999/xlink" width="321" zoomAndPan="magnify" viewBox="0 0 240.75 141.750002" height="188" preserveAspectRatio="xMidYMid meet" version="1.0"><defs><g/></defs><g fill="#fefefe" fill-opacity="1"><g transform="translate(24.383597, 117.822812)"><g><path d="M 60.847656 1.410156 C 72.566406 1.410156 89.929688 -4.375 100.519531 -18.210938 L 100.519531 -44.1875 L 78.636719 -44.1875 L 78.636719 -42.210938 C 84.707031 -40.519531 85.976562 -36.566406 85.976562 -25.554688 L 85.976562 -12.707031 C 82.449219 -5.648438 74.402344 -1.976562 65.507812 -1.976562 C 38.402344 -1.976562 22.164062 -32.472656 22.449219 -59.152344 C 22.730469 -84.707031 36.988281 -97.128906 55.484375 -97.128906 C 69.601562 -97.128906 84.425781 -88.378906 90.214844 -73.835938 L 91.90625 -74.261719 L 91.34375 -92.894531 C 84 -97.835938 69.460938 -99.8125 60.707031 -99.8125 C 28.941406 -99.8125 7.625 -76.941406 7.625 -49.835938 C 7.625 -18.917969 28.375 1.410156 60.847656 1.410156 Z M 60.847656 1.410156 "/></g></g></g><g fill="#fefefe" fill-opacity="1"><g transform="translate(130.827892, 117.822812)"><g><path d="M 40.378906 1.410156 C 56.613281 1.410156 74.402344 -9.316406 74.402344 -28.660156 C 74.402344 -45.601562 57.320312 -51.953125 42.917969 -57.460938 C 31.625 -61.976562 17.363281 -67.058594 17.363281 -79.625 C 17.363281 -90.777344 26.257812 -97.414062 37.554688 -97.414062 C 51.246094 -97.414062 63.246094 -89.507812 69.035156 -74.964844 L 70.589844 -75.53125 L 70.023438 -93.882812 C 62.683594 -97.554688 53.367188 -99.8125 42.917969 -99.8125 C 20.753906 -99.8125 6.636719 -88.941406 6.636719 -71.4375 C 6.636719 -55.058594 18.777344 -50.257812 33.316406 -44.1875 C 44.613281 -39.671875 62.824219 -33.175781 62.824219 -19.339844 C 62.824219 -7.765625 53.789062 -1.554688 44.046875 -1.554688 C 25.269531 -1.554688 12.707031 -13.976562 6.777344 -30.070312 L 4.941406 -29.789062 L 5.507812 -8.613281 C 12.707031 -3.246094 25.835938 1.410156 40.378906 1.410156 Z M 40.378906 1.410156 "/></g></g></g><path stroke-linecap="butt" transform="matrix(0.74868, 0, 0, 0.74868, 137.967088, 124.339757)" fill="none" stroke-linejoin="miter" d="M 0.00222 1.998426 L 88.376561 1.998426 " stroke="#fefefe" stroke-width="4" stroke-opacity="1" stroke-miterlimit="4"/></svg>