<svg xmlns="http://www.w3.org/2000/svg" xmlns:xlink="http://www.w3.org/1999/xlink" width="500" zoomAndPan="magnify" viewBox="0 0 375 374.999991" height="500" preserveAspectRatio="xMidYMid meet" version="1.0"><defs><g/><clipPath id="3bc166b123"><path d="M 187.5 0 C 291.054688 0 375 83.945312 375 187.5 C 375 291.054688 291.054688 375 187.5 375 C 83.945312 375 0 291.054688 0 187.5 C 0 83.945312 83.945312 0 187.5 0 L 187.5 33.75 C 102.585938 33.75 33.75 102.585938 33.75 187.5 C 33.75 272.414062 102.585938 341.25 187.5 341.25 C 272.414062 341.25 341.25 272.414062 341.25 187.5 C 341.25 102.585938 272.414062 33.75 187.5 33.75 Z M 187.5 0 " clip-rule="nonzero"/></clipPath><clipPath id="c2cefbed0c"><path d="M 206.042969 0.917969 C 299.875 10.246094 372.1875 87.804688 374.921875 182.0625 C 377.65625 276.316406 309.964844 357.941406 216.832031 372.691406 C 123.695312 387.441406 34.097656 330.730469 7.570312 240.246094 C -18.953125 149.757812 25.847656 53.648438 112.207031 15.78125 C 117.726562 13.359375 124.121094 14.070312 128.980469 17.640625 C 133.835938 21.210938 136.417969 27.101562 135.753906 33.09375 C 135.089844 39.085938 131.28125 44.269531 125.757812 46.691406 C 54.945312 77.742188 18.207031 156.550781 39.957031 230.75 C 61.710938 304.949219 135.183594 351.453125 211.550781 339.355469 C 287.921875 327.261719 343.429688 260.332031 341.183594 183.039062 C 338.941406 105.75 279.648438 42.152344 202.707031 34.503906 C 193.433594 33.582031 186.660156 25.316406 187.582031 16.042969 C 188.503906 6.769531 196.769531 -0.00390625 206.042969 0.917969 Z M 206.042969 0.917969 " clip-rule="nonzero"/></clipPath></defs><g fill="#ffffff" fill-opacity="1"><g transform="translate(108.085939, 217.499992)"><g><path d="M 41.6875 -31.8125 C 41.6875 -20.882812 39.382812 -12.722656 34.78125 -7.328125 C 30.175781 -1.929688 23.203125 0.765625 13.859375 0.765625 C 10.566406 0.765625 8.070312 0.585938 6.375 0.234375 L 6.375 -9.1875 C 8.5 -8.65625 10.726562 -8.390625 13.0625 -8.390625 C 16.988281 -8.390625 20.21875 -8.960938 22.75 -10.109375 C 25.28125 -11.265625 27.210938 -13.078125 28.546875 -15.546875 C 29.890625 -18.015625 30.664062 -21.414062 30.875 -25.75 L 30.421875 -25.75 C 28.953125 -23.363281 27.253906 -21.691406 25.328125 -20.734375 C 23.398438 -19.773438 20.992188 -19.296875 18.109375 -19.296875 C 13.273438 -19.296875 9.460938 -20.84375 6.671875 -23.9375 C 3.890625 -27.039062 2.5 -31.351562 2.5 -36.875 C 2.5 -42.820312 4.1875 -47.519531 7.5625 -50.96875 C 10.945312 -54.425781 15.550781 -56.15625 21.375 -56.15625 C 25.476562 -56.15625 29.066406 -55.191406 32.140625 -53.265625 C 35.210938 -51.347656 37.570312 -48.5625 39.21875 -44.90625 C 40.863281 -41.25 41.6875 -36.882812 41.6875 -31.8125 Z M 21.609375 -46.75 C 19.171875 -46.75 17.269531 -45.910156 15.90625 -44.234375 C 14.539062 -42.566406 13.859375 -40.160156 13.859375 -37.015625 C 13.859375 -34.335938 14.476562 -32.210938 15.71875 -30.640625 C 16.957031 -29.066406 18.84375 -28.28125 21.375 -28.28125 C 23.757812 -28.28125 25.796875 -29.054688 27.484375 -30.609375 C 29.179688 -32.171875 30.03125 -33.96875 30.03125 -36 C 30.03125 -39.007812 29.238281 -41.550781 27.65625 -43.625 C 26.070312 -45.707031 24.054688 -46.75 21.609375 -46.75 Z M 21.609375 -46.75 "/></g></g></g><g fill="#ffffff" fill-opacity="1"><g transform="translate(152.465701, 217.499992)"><g><path d="M 23.3125 -35.46875 C 28.675781 -35.46875 32.945312 -33.957031 36.125 -30.9375 C 39.300781 -27.925781 40.890625 -23.800781 40.890625 -18.5625 C 40.890625 -12.363281 38.976562 -7.59375 35.15625 -4.25 C 31.332031 -0.90625 25.867188 0.765625 18.765625 0.765625 C 12.585938 0.765625 7.597656 -0.234375 3.796875 -2.234375 L 3.796875 -12.375 C 5.796875 -11.3125 8.125 -10.441406 10.78125 -9.765625 C 13.4375 -9.097656 15.957031 -8.765625 18.34375 -8.765625 C 25.507812 -8.765625 29.09375 -11.703125 29.09375 -17.578125 C 29.09375 -23.171875 25.378906 -25.96875 17.953125 -25.96875 C 16.617188 -25.96875 15.140625 -25.832031 13.515625 -25.5625 C 11.898438 -25.300781 10.582031 -25.019531 9.5625 -24.71875 L 4.890625 -27.21875 L 6.984375 -55.515625 L 37.09375 -55.515625 L 37.09375 -45.5625 L 17.28125 -45.5625 L 16.25 -34.671875 L 17.578125 -34.9375 C 19.117188 -35.289062 21.03125 -35.46875 23.3125 -35.46875 Z M 23.3125 -35.46875 "/></g></g></g><g fill="#ffffff" fill-opacity="1"><g transform="translate(196.845462, 217.499992)"><g><path d="M 11.96875 -38.890625 C 11.96875 -35.671875 12.25 -33.269531 12.8125 -31.6875 C 13.382812 -30.101562 14.300781 -29.3125 15.5625 -29.3125 C 18 -29.3125 19.21875 -32.503906 19.21875 -38.890625 C 19.21875 -45.210938 18 -48.375 15.5625 -48.375 C 14.300781 -48.375 13.382812 -47.59375 12.8125 -46.03125 C 12.25 -44.476562 11.96875 -42.097656 11.96875 -38.890625 Z M 28.78125 -38.953125 C 28.78125 -33.128906 27.65625 -28.753906 25.40625 -25.828125 C 23.15625 -22.910156 19.851562 -21.453125 15.5 -21.453125 C 11.320312 -21.453125 8.09375 -22.953125 5.8125 -25.953125 C 3.53125 -28.953125 2.390625 -33.285156 2.390625 -38.953125 C 2.390625 -50.523438 6.757812 -56.3125 15.5 -56.3125 C 19.769531 -56.3125 23.050781 -54.8125 25.34375 -51.8125 C 27.632812 -48.8125 28.78125 -44.523438 28.78125 -38.953125 Z M 54.90625 -55.515625 L 24.109375 0 L 15 0 L 45.796875 -55.515625 Z M 50.84375 -16.703125 C 50.84375 -13.492188 51.125 -11.097656 51.6875 -9.515625 C 52.257812 -7.929688 53.179688 -7.140625 54.453125 -7.140625 C 56.878906 -7.140625 58.09375 -10.328125 58.09375 -16.703125 C 58.09375 -23.035156 56.878906 -26.203125 54.453125 -26.203125 C 53.179688 -26.203125 52.257812 -25.421875 51.6875 -23.859375 C 51.125 -22.304688 50.84375 -19.921875 50.84375 -16.703125 Z M 67.671875 -16.78125 C 67.671875 -10.988281 66.539062 -6.628906 64.28125 -3.703125 C 62.03125 -0.773438 58.726562 0.6875 54.375 0.6875 C 50.195312 0.6875 46.96875 -0.8125 44.6875 -3.8125 C 42.414062 -6.8125 41.28125 -11.132812 41.28125 -16.78125 C 41.28125 -28.351562 45.644531 -34.140625 54.375 -34.140625 C 58.65625 -34.140625 61.941406 -32.640625 64.234375 -29.640625 C 66.523438 -26.640625 67.671875 -22.351562 67.671875 -16.78125 Z M 67.671875 -16.78125 "/></g></g></g><g clip-path="url(#3bc166b123)"><rect x="-37.5" width="450" fill="#4d1546" y="-37.499999" height="449.999989" fill-opacity="1"/></g><g clip-path="url(#c2cefbed0c)"><rect x="-37.5" width="450" fill="#ce3abb" y="-37.499999" height="449.999989" fill-opacity="1"/></g></svg>