<svg xmlns="http://www.w3.org/2000/svg" xmlns:xlink="http://www.w3.org/1999/xlink" width="500" zoomAndPan="magnify" viewBox="0 0 375 374.999991" height="500" preserveAspectRatio="xMidYMid meet" version="1.0"><defs><g/><clipPath id="52348661b2"><path d="M 375 187.5 C 375 291.054688 291.054688 375 187.5 375 C 83.945312 375 0 291.054688 0 187.5 C 0 83.945312 83.945312 0 187.5 0 C 291.054688 0 375 83.945312 375 187.5 L 337.5 187.5 C 337.5 104.65625 270.34375 37.5 187.5 37.5 C 104.65625 37.5 37.5 104.65625 37.5 187.5 C 37.5 270.34375 104.65625 337.5 187.5 337.5 C 270.34375 337.5 337.5 270.34375 337.5 187.5 Z M 375 187.5 " clip-rule="nonzero"/></clipPath><clipPath id="6753c5e90d"><path d="M 0 0 L 374 0 L 374 375 L 0 375 Z M 0 0 " clip-rule="nonzero"/></clipPath><clipPath id="391ca23959"><path d="M 373.839844 208.332031 C 364.273438 293.894531 297.667969 361.945312 212.332031 373.347656 C 126.996094 384.75 44.859375 336.570312 13.167969 256.523438 C -18.527344 176.476562 8.367188 85.128906 78.378906 35.023438 C 148.390625 -15.082031 243.53125 -11.066406 309.074219 44.753906 C 314.171875 49.097656 316.570312 55.832031 315.355469 62.421875 C 314.144531 69.007812 309.511719 74.449219 303.199219 76.695312 C 296.886719 78.941406 289.859375 77.648438 284.757812 73.304688 C 232.324219 28.644531 156.214844 25.433594 100.203125 65.519531 C 44.195312 105.601562 22.679688 178.679688 48.035156 242.71875 C 73.386719 306.757812 139.097656 345.300781 207.363281 336.179688 C 275.632812 327.058594 328.917969 272.617188 336.570312 204.167969 C 337.316406 197.507812 341.554688 191.753906 347.691406 189.070312 C 353.828125 186.386719 360.933594 187.179688 366.328125 191.152344 C 371.71875 195.128906 374.582031 201.675781 373.839844 208.332031 Z M 373.839844 208.332031 " clip-rule="nonzero"/></clipPath></defs><g fill="#ffffff" fill-opacity="1"><g transform="translate(152.499967, 104.32812)"><g><path d="M 14.140625 4.171875 C 20.710938 4.171875 26.101562 7.789062 30.3125 15.03125 C 33.988281 9.039062 38.40625 6.046875 43.5625 6.046875 C 47.832031 6.046875 51.375 7.703125 54.1875 11.015625 C 57 14.335938 58.40625 18.785156 58.40625 24.359375 C 58.40625 29.929688 57.113281 34.125 54.53125 36.9375 C 51.957031 39.75 48.804688 41.15625 45.078125 41.15625 C 40.335938 41.15625 35.59375 38.34375 30.84375 32.71875 C 26.632812 39.945312 21.476562 43.5625 15.375 43.5625 C 10.695312 43.5625 6.800781 41.867188 3.6875 38.484375 C 0.570312 35.109375 -0.984375 30.054688 -0.984375 23.328125 C -0.984375 16.609375 0.507812 11.734375 3.5 8.703125 C 6.5 5.679688 10.046875 4.171875 14.140625 4.171875 Z M 7.109375 23.28125 C 7.109375 26.070312 7.816406 28.253906 9.234375 29.828125 C 10.660156 31.398438 12.585938 32.1875 15.015625 32.1875 C 17.453125 32.1875 19.484375 31.351562 21.109375 29.6875 C 22.742188 28.03125 24.390625 25.570312 26.046875 22.3125 C 24.390625 19.820312 22.71875 17.910156 21.03125 16.578125 C 19.34375 15.242188 17.351562 14.578125 15.0625 14.578125 C 12.78125 14.578125 10.882812 15.332031 9.375 16.84375 C 7.863281 18.351562 7.109375 20.5 7.109375 23.28125 Z M 44.625 31.296875 C 46.519531 31.296875 48.03125 30.597656 49.15625 29.203125 C 50.289062 27.804688 50.859375 26.023438 50.859375 23.859375 C 50.859375 21.703125 50.21875 19.910156 48.9375 18.484375 C 47.664062 17.066406 46.082031 16.359375 44.1875 16.359375 C 40.632812 16.359375 37.429688 19.175781 34.578125 24.8125 C 35.765625 26.582031 37.257812 28.101562 39.0625 29.375 C 40.875 30.65625 42.726562 31.296875 44.625 31.296875 Z M 44.625 31.296875 "/></g></g></g><g fill="#ffffff" fill-opacity="1"><g transform="translate(152.499967, 151.884563)"><g><path d="M 14.140625 4.171875 C 20.710938 4.171875 26.101562 7.789062 30.3125 15.03125 C 33.988281 9.039062 38.40625 6.046875 43.5625 6.046875 C 47.832031 6.046875 51.375 7.703125 54.1875 11.015625 C 57 14.335938 58.40625 18.785156 58.40625 24.359375 C 58.40625 29.929688 57.113281 34.125 54.53125 36.9375 C 51.957031 39.75 48.804688 41.15625 45.078125 41.15625 C 40.335938 41.15625 35.59375 38.34375 30.84375 32.71875 C 26.632812 39.945312 21.476562 43.5625 15.375 43.5625 C 10.695312 43.5625 6.800781 41.867188 3.6875 38.484375 C 0.570312 35.109375 -0.984375 30.054688 -0.984375 23.328125 C -0.984375 16.609375 0.507812 11.734375 3.5 8.703125 C 6.5 5.679688 10.046875 4.171875 14.140625 4.171875 Z M 7.109375 23.28125 C 7.109375 26.070312 7.816406 28.253906 9.234375 29.828125 C 10.660156 31.398438 12.585938 32.1875 15.015625 32.1875 C 17.453125 32.1875 19.484375 31.351562 21.109375 29.6875 C 22.742188 28.03125 24.390625 25.570312 26.046875 22.3125 C 24.390625 19.820312 22.71875 17.910156 21.03125 16.578125 C 19.34375 15.242188 17.351562 14.578125 15.0625 14.578125 C 12.78125 14.578125 10.882812 15.332031 9.375 16.84375 C 7.863281 18.351562 7.109375 20.5 7.109375 23.28125 Z M 44.625 31.296875 C 46.519531 31.296875 48.03125 30.597656 49.15625 29.203125 C 50.289062 27.804688 50.859375 26.023438 50.859375 23.859375 C 50.859375 21.703125 50.21875 19.910156 48.9375 18.484375 C 47.664062 17.066406 46.082031 16.359375 44.1875 16.359375 C 40.632812 16.359375 37.429688 19.175781 34.578125 24.8125 C 35.765625 26.582031 37.257812 28.101562 39.0625 29.375 C 40.875 30.65625 42.726562 31.296875 44.625 31.296875 Z M 44.625 31.296875 "/></g></g></g><g fill="#ffffff" fill-opacity="1"><g transform="translate(152.499967, 199.441006)"><g><path d="M 14.84375 40.546875 C 20.125 40.546875 24.171875 41.816406 26.984375 44.359375 C 29.796875 46.910156 31.203125 50.332031 31.203125 54.625 C 31.203125 58.925781 29.867188 62.289062 27.203125 64.71875 C 24.535156 67.15625 20.535156 68.375 15.203125 68.375 C 9.867188 68.375 5.789062 67.140625 2.96875 64.671875 C 0.15625 62.210938 -1.25 58.742188 -1.25 54.265625 C -1.25 49.796875 0.113281 46.390625 2.84375 44.046875 C 5.570312 41.710938 9.570312 40.546875 14.84375 40.546875 Z M 4.890625 54.328125 C 4.890625 58.472656 8.253906 60.546875 14.984375 60.546875 C 21.710938 60.546875 25.078125 58.53125 25.078125 54.5 C 25.078125 50.351562 21.710938 48.28125 14.984375 48.28125 C 8.253906 48.28125 4.890625 50.296875 4.890625 54.328125 Z M 42.046875 3.015625 C 47.328125 3.015625 51.375 4.289062 54.1875 6.84375 C 57 9.394531 58.40625 12.816406 58.40625 17.109375 C 58.40625 21.410156 57.070312 24.773438 54.40625 27.203125 C 51.738281 29.628906 47.738281 30.84375 42.40625 30.84375 C 37.070312 30.84375 32.992188 29.613281 30.171875 27.15625 C 27.359375 24.695312 25.953125 21.226562 25.953125 16.75 C 25.953125 12.28125 27.316406 8.875 30.046875 6.53125 C 32.773438 4.1875 36.773438 3.015625 42.046875 3.015625 Z M 32.09375 16.796875 C 32.09375 20.953125 35.457031 23.03125 42.1875 23.03125 C 48.914062 23.03125 52.28125 21.015625 52.28125 16.984375 C 52.28125 12.828125 48.914062 10.75 42.1875 10.75 C 35.457031 10.75 32.09375 12.765625 32.09375 16.796875 Z M -0.796875 26.046875 L 2.40625 19.03125 L 58.0625 44.984375 L 55.03125 52.1875 Z M -0.796875 26.046875 "/></g></g></g><g clip-path="url(#52348661b2)"><rect x="-37.5" width="450" fill="#ffffff" y="-37.499999" height="449.999989" fill-opacity="1"/></g><g clip-path="url(#6753c5e90d)"><g clip-path="url(#391ca23959)"><rect x="-37.5" width="450" fill="#940f65" y="-37.499999" height="449.999989" fill-opacity="1"/></g></g></svg>