<svg xmlns="http://www.w3.org/2000/svg" xmlns:xlink="http://www.w3.org/1999/xlink" width="500" zoomAndPan="magnify" viewBox="0 0 375 374.999991" height="500" preserveAspectRatio="xMidYMid meet" version="1.0"><defs><g/><clipPath id="4a158c8102"><path d="M 187.5 0 C 291.054688 0 375 83.945312 375 187.5 C 375 291.054688 291.054688 375 187.5 375 C 83.945312 375 0 291.054688 0 187.5 C 0 83.945312 83.945312 0 187.5 0 L 187.5 33.75 C 102.585938 33.75 33.75 102.585938 33.75 187.5 C 33.75 272.414062 102.585938 341.25 187.5 341.25 C 272.414062 341.25 341.25 272.414062 341.25 187.5 C 341.25 102.585938 272.414062 33.75 187.5 33.75 Z M 187.5 0 " clip-rule="nonzero"/></clipPath><clipPath id="4c3cfc6346"><path d="M 206.042969 0.917969 C 288.875 9.152344 356.363281 71.007812 371.761719 152.808594 C 387.164062 234.613281 346.789062 316.773438 272.625 354.5625 C 198.457031 392.351562 108.253906 376.722656 51.128906 316.179688 C -6 255.640625 -16.375 164.683594 25.652344 92.832031 C 28.695312 87.628906 34.285156 84.445312 40.316406 84.476562 C 46.34375 84.511719 51.894531 87.761719 54.882812 93 C 57.867188 98.238281 57.828125 104.667969 54.785156 109.871094 C 20.324219 168.789062 28.832031 243.375 75.675781 293.019531 C 122.519531 342.664062 196.484375 355.480469 257.300781 324.492188 C 318.117188 293.503906 351.222656 226.132812 338.59375 159.054688 C 325.96875 91.976562 270.628906 41.253906 202.707031 34.503906 C 193.433594 33.582031 186.660156 25.316406 187.582031 16.042969 C 188.503906 6.769531 196.769531 -0.00390625 206.042969 0.917969 Z M 206.042969 0.917969 " clip-rule="nonzero"/></clipPath></defs><g fill="#ffffff" fill-opacity="1"><g transform="translate(108.085939, 217.499992)"><g><path d="M 22.25 -56.234375 C 27.5625 -56.234375 31.84375 -55.023438 35.09375 -52.609375 C 38.351562 -50.191406 39.984375 -46.929688 39.984375 -42.828125 C 39.984375 -39.992188 39.195312 -37.46875 37.625 -35.25 C 36.0625 -33.039062 33.53125 -31.0625 30.03125 -29.3125 C 34.1875 -27.082031 37.164062 -24.757812 38.96875 -22.34375 C 40.78125 -19.925781 41.6875 -17.273438 41.6875 -14.390625 C 41.6875 -9.835938 39.898438 -6.171875 36.328125 -3.390625 C 32.765625 -0.617188 28.070312 0.765625 22.25 0.765625 C 16.175781 0.765625 11.40625 -0.523438 7.9375 -3.109375 C 4.46875 -5.691406 2.734375 -9.351562 2.734375 -14.09375 C 2.734375 -17.25 3.570312 -20.054688 5.25 -22.515625 C 6.9375 -24.972656 9.640625 -27.140625 13.359375 -29.015625 C 10.203125 -31.015625 7.925781 -33.148438 6.53125 -35.421875 C 5.132812 -37.703125 4.4375 -40.195312 4.4375 -42.90625 C 4.4375 -46.882812 6.082031 -50.097656 9.375 -52.546875 C 12.664062 -55.003906 16.957031 -56.234375 22.25 -56.234375 Z M 13.59375 -14.765625 C 13.59375 -12.585938 14.351562 -10.890625 15.875 -9.671875 C 17.394531 -8.460938 19.46875 -7.859375 22.09375 -7.859375 C 25.007812 -7.859375 27.1875 -8.484375 28.625 -9.734375 C 30.070312 -10.992188 30.796875 -12.644531 30.796875 -14.6875 C 30.796875 -16.382812 30.078125 -17.972656 28.640625 -19.453125 C 27.210938 -20.941406 24.894531 -22.519531 21.6875 -24.1875 C 16.289062 -21.707031 13.59375 -18.566406 13.59375 -14.765625 Z M 22.171875 -47.65625 C 20.171875 -47.65625 18.554688 -47.140625 17.328125 -46.109375 C 16.109375 -45.085938 15.5 -43.71875 15.5 -42 C 15.5 -40.476562 15.984375 -39.113281 16.953125 -37.90625 C 17.929688 -36.707031 19.695312 -35.476562 22.25 -34.21875 C 24.726562 -35.375 26.460938 -36.5625 27.453125 -37.78125 C 28.441406 -39 28.9375 -40.40625 28.9375 -42 C 28.9375 -43.738281 28.300781 -45.113281 27.03125 -46.125 C 25.769531 -47.144531 24.148438 -47.65625 22.171875 -47.65625 Z M 22.171875 -47.65625 "/></g></g></g><g fill="#ffffff" fill-opacity="1"><g transform="translate(152.465701, 217.499992)"><g><path d="M 23.3125 -35.46875 C 28.675781 -35.46875 32.945312 -33.957031 36.125 -30.9375 C 39.300781 -27.925781 40.890625 -23.800781 40.890625 -18.5625 C 40.890625 -12.363281 38.976562 -7.59375 35.15625 -4.25 C 31.332031 -0.90625 25.867188 0.765625 18.765625 0.765625 C 12.585938 0.765625 7.597656 -0.234375 3.796875 -2.234375 L 3.796875 -12.375 C 5.796875 -11.3125 8.125 -10.441406 10.78125 -9.765625 C 13.4375 -9.097656 15.957031 -8.765625 18.34375 -8.765625 C 25.507812 -8.765625 29.09375 -11.703125 29.09375 -17.578125 C 29.09375 -23.171875 25.378906 -25.96875 17.953125 -25.96875 C 16.617188 -25.96875 15.140625 -25.832031 13.515625 -25.5625 C 11.898438 -25.300781 10.582031 -25.019531 9.5625 -24.71875 L 4.890625 -27.21875 L 6.984375 -55.515625 L 37.09375 -55.515625 L 37.09375 -45.5625 L 17.28125 -45.5625 L 16.25 -34.671875 L 17.578125 -34.9375 C 19.117188 -35.289062 21.03125 -35.46875 23.3125 -35.46875 Z M 23.3125 -35.46875 "/></g></g></g><g fill="#ffffff" fill-opacity="1"><g transform="translate(196.845462, 217.499992)"><g><path d="M 11.96875 -38.890625 C 11.96875 -35.671875 12.25 -33.269531 12.8125 -31.6875 C 13.382812 -30.101562 14.300781 -29.3125 15.5625 -29.3125 C 18 -29.3125 19.21875 -32.503906 19.21875 -38.890625 C 19.21875 -45.210938 18 -48.375 15.5625 -48.375 C 14.300781 -48.375 13.382812 -47.59375 12.8125 -46.03125 C 12.25 -44.476562 11.96875 -42.097656 11.96875 -38.890625 Z M 28.78125 -38.953125 C 28.78125 -33.128906 27.65625 -28.753906 25.40625 -25.828125 C 23.15625 -22.910156 19.851562 -21.453125 15.5 -21.453125 C 11.320312 -21.453125 8.09375 -22.953125 5.8125 -25.953125 C 3.53125 -28.953125 2.390625 -33.285156 2.390625 -38.953125 C 2.390625 -50.523438 6.757812 -56.3125 15.5 -56.3125 C 19.769531 -56.3125 23.050781 -54.8125 25.34375 -51.8125 C 27.632812 -48.8125 28.78125 -44.523438 28.78125 -38.953125 Z M 54.90625 -55.515625 L 24.109375 0 L 15 0 L 45.796875 -55.515625 Z M 50.84375 -16.703125 C 50.84375 -13.492188 51.125 -11.097656 51.6875 -9.515625 C 52.257812 -7.929688 53.179688 -7.140625 54.453125 -7.140625 C 56.878906 -7.140625 58.09375 -10.328125 58.09375 -16.703125 C 58.09375 -23.035156 56.878906 -26.203125 54.453125 -26.203125 C 53.179688 -26.203125 52.257812 -25.421875 51.6875 -23.859375 C 51.125 -22.304688 50.84375 -19.921875 50.84375 -16.703125 Z M 67.671875 -16.78125 C 67.671875 -10.988281 66.539062 -6.628906 64.28125 -3.703125 C 62.03125 -0.773438 58.726562 0.6875 54.375 0.6875 C 50.195312 0.6875 46.96875 -0.8125 44.6875 -3.8125 C 42.414062 -6.8125 41.28125 -11.132812 41.28125 -16.78125 C 41.28125 -28.351562 45.644531 -34.140625 54.375 -34.140625 C 58.65625 -34.140625 61.941406 -32.640625 64.234375 -29.640625 C 66.523438 -26.640625 67.671875 -22.351562 67.671875 -16.78125 Z M 67.671875 -16.78125 "/></g></g></g><g clip-path="url(#4a158c8102)"><rect x="-37.5" width="450" fill="#4d1546" y="-37.499999" height="449.999989" fill-opacity="1"/></g><g clip-path="url(#4c3cfc6346)"><rect x="-37.5" width="450" fill="#ce3abb" y="-37.499999" height="449.999989" fill-opacity="1"/></g></svg>